<svg width="943" height="598" viewBox="0 0 943 598" fill="none" xmlns="http://www.w3.org/2000/svg">
<foreignObject x="-4" y="-4" width="951" height="606"><div xmlns="http://www.w3.org/1999/xhtml" style="backdrop-filter:blur(2px);clip-path:url(#bgblur_1_156_857_clip_path);height:100%;width:100%"></div></foreignObject><g data-figma-bg-blur-radius="4">
<g clip-path="url(#clip0_156_857)">
<rect width="943" height="598" rx="25" fill="white"/>
<g opacity="0.15" clip-path="url(#clip2_156_857)">
<path d="M47.1841 598V0.1875" stroke="#6D6E71" stroke-opacity="0.72" stroke-width="0.25" stroke-miterlimit="10"/>
<path d="M95.2358 598V0.1875" stroke="#6D6E71" stroke-opacity="0.72" stroke-width="0.25" stroke-miterlimit="10"/>
<path d="M141.732 598V0.1875" stroke="#6D6E71" stroke-opacity="0.72" stroke-width="0.25" stroke-miterlimit="10"/>
<path d="M189.799 598V0.1875" stroke="#6D6E71" stroke-opacity="0.72" stroke-width="0.25" stroke-miterlimit="10"/>
<path d="M237.192 598V0.1875" stroke="#6D6E71" stroke-opacity="0.72" stroke-width="0.25" stroke-miterlimit="10"/>
<path d="M285.244 598V0.1875" stroke="#6D6E71" stroke-opacity="0.72" stroke-width="0.25" stroke-miterlimit="10"/>
<path d="M331.74 598V0.1875" stroke="#6D6E71" stroke-opacity="0.72" stroke-width="0.25" stroke-miterlimit="10"/>
<path d="M379.807 598V0.1875" stroke="#6D6E71" stroke-opacity="0.72" stroke-width="0.25" stroke-miterlimit="10"/>
<path d="M427.2 598V0.1875" stroke="#6D6E71" stroke-opacity="0.72" stroke-width="0.25" stroke-miterlimit="10"/>
<path d="M475.252 598V0.1875" stroke="#6D6E71" stroke-opacity="0.72" stroke-width="0.25" stroke-miterlimit="10"/>
<path d="M521.748 598V0.1875" stroke="#6D6E71" stroke-opacity="0.72" stroke-width="0.25" stroke-miterlimit="10"/>
<path d="M569.815 598V0.1875" stroke="#6D6E71" stroke-opacity="0.72" stroke-width="0.25" stroke-miterlimit="10"/>
<path d="M617.208 598V0.1875" stroke="#6D6E71" stroke-opacity="0.72" stroke-width="0.25" stroke-miterlimit="10"/>
<path d="M665.26 598V0.1875" stroke="#6D6E71" stroke-opacity="0.72" stroke-width="0.25" stroke-miterlimit="10"/>
<path d="M711.756 598V0.1875" stroke="#6D6E71" stroke-opacity="0.72" stroke-width="0.25" stroke-miterlimit="10"/>
<path d="M759.823 598V0.1875" stroke="#6D6E71" stroke-opacity="0.72" stroke-width="0.25" stroke-miterlimit="10"/>
<path d="M806.797 598V0.1875" stroke="#6D6E71" stroke-opacity="0.72" stroke-width="0.25" stroke-miterlimit="10"/>
<path d="M854.849 598V0.1875" stroke="#6D6E71" stroke-opacity="0.72" stroke-width="0.25" stroke-miterlimit="10"/>
<path d="M901.36 598V0.1875" stroke="#6D6E71" stroke-opacity="0.72" stroke-width="0.25" stroke-miterlimit="10"/>
<path d="M0 0.203085L996.806 0.1875" stroke="#6D6E71" stroke-opacity="0.72" stroke-width="0.25" stroke-miterlimit="10"/>
<path d="M0 50.2617H996.806" stroke="#6D6E71" stroke-opacity="0.72" stroke-width="0.25" stroke-miterlimit="10"/>
<path d="M0 98.7031H996.806" stroke="#6D6E71" stroke-opacity="0.72" stroke-width="0.25" stroke-miterlimit="10"/>
<path d="M0 148.762H996.806" stroke="#6D6E71" stroke-opacity="0.72" stroke-width="0.25" stroke-miterlimit="10"/>
<path d="M0 198.152H996.806" stroke="#6D6E71" stroke-opacity="0.72" stroke-width="0.25" stroke-miterlimit="10"/>
<path d="M0 248.215H996.806" stroke="#6D6E71" stroke-opacity="0.72" stroke-width="0.25" stroke-miterlimit="10"/>
<path d="M0 296.656H996.806" stroke="#6D6E71" stroke-opacity="0.72" stroke-width="0.25" stroke-miterlimit="10"/>
<path d="M0 346.715H996.806" stroke="#6D6E71" stroke-opacity="0.72" stroke-width="0.25" stroke-miterlimit="10"/>
<path d="M0 396.777H996.806" stroke="#6D6E71" stroke-opacity="0.72" stroke-width="0.25" stroke-miterlimit="10"/>
<path d="M0 446.852H996.806" stroke="#6D6E71" stroke-opacity="0.72" stroke-width="0.25" stroke-miterlimit="10"/>
<path d="M0 495.293H996.806" stroke="#6D6E71" stroke-opacity="0.72" stroke-width="0.25" stroke-miterlimit="10"/>
<path d="M0 545.352H996.806" stroke="#6D6E71" stroke-opacity="0.72" stroke-width="0.25" stroke-miterlimit="10"/>
<path d="M0 594.727H996.806" stroke="#6D6E71" stroke-opacity="0.72" stroke-width="0.25" stroke-miterlimit="10"/>
<path d="M0.493652 598V0.1875" stroke="#6D6E71" stroke-opacity="0.72" stroke-width="0.25" stroke-miterlimit="10"/>
<path opacity="0.4" d="M95.2359 545.352H47.1841V595.412H95.2359V545.352Z" fill="#6D6E71" fill-opacity="0.72"/>
<path opacity="0.4" d="M190.232 495.758H142.181V545.818H190.232V495.758Z" fill="#6D6E71" fill-opacity="0.72"/>
<path opacity="0.4" d="M285.02 545.352H236.968V595.412H285.02V545.352Z" fill="#6D6E71" fill-opacity="0.72"/>
<path opacity="0.4" d="M237.522 446.043H189.47V496.104H237.522V446.043Z" fill="#6D6E71" fill-opacity="0.72"/>
<path opacity="0.4" d="M190.232 297.465H142.181V347.525H190.232V297.465Z" fill="#6D6E71" fill-opacity="0.72"/>
<path opacity="0.4" d="M237.522 346.309H189.47V396.369H237.522V346.309Z" fill="#6D6E71" fill-opacity="0.72"/>
<path opacity="0.4" d="M427.529 544.668H379.478V594.729H427.529V544.668Z" fill="#6D6E71" fill-opacity="0.72"/>
<path opacity="0.4" d="M473.068 495.758H425.016V545.818H473.068V495.758Z" fill="#6D6E71" fill-opacity="0.72"/>
<path opacity="0.4" d="M664.811 247.402H616.759V297.463H664.811V247.402Z" fill="#6D6E71" fill-opacity="0.72"/>
<path opacity="0.4" d="M380.24 197.688H332.188V247.748H380.24V197.688Z" fill="#6D6E71" fill-opacity="0.72"/>
<path opacity="0.4" d="M331.755 148.762H285.244V197.498H331.755V148.762Z" fill="#6D6E71" fill-opacity="0.72"/>
<path opacity="0.4" d="M474.265 248.059H427.754V296.794H474.265V248.059Z" fill="#6D6E71" fill-opacity="0.72"/>
<path opacity="0.4" d="M569.037 347.387H522.526V396.123H569.037V347.387Z" fill="#6D6E71" fill-opacity="0.72"/>
<path opacity="0.4" d="M569.037 446.695H522.526V495.431H569.037V446.695Z" fill="#6D6E71" fill-opacity="0.72"/>
<path opacity="0.4" d="M521.658 396.637H475.147V445.373H521.658V396.637Z" fill="#6D6E71" fill-opacity="0.72"/>
<path opacity="0.4" d="M569.037 198.34H522.526V247.076H569.037V198.34Z" fill="#6D6E71" fill-opacity="0.72"/>
<path opacity="0.4" d="M759.284 346.98H712.773V395.716H759.284V346.98Z" fill="#6D6E71" fill-opacity="0.72"/>
<path opacity="0.4" d="M759.284 149.09H712.773V197.826H759.284V149.09Z" fill="#6D6E71" fill-opacity="0.72"/>
<path opacity="0.4" d="M806.813 199.465H760.302V248.201H806.813V199.465Z" fill="#6D6E71" fill-opacity="0.72"/>
<path opacity="0.4" d="M616.759 49.9688H570.249V98.7046H616.759V49.9688Z" fill="#6D6E71" fill-opacity="0.72"/>
<path opacity="0.4" d="M474.265 99.8242H427.754V148.56H474.265V99.8242Z" fill="#6D6E71" fill-opacity="0.72"/>
<path opacity="0.4" d="M853.847 446.695H807.336V495.431H853.847V446.695Z" fill="#6D6E71" fill-opacity="0.72"/>
<path opacity="0.4" d="M189.469 199.465H142.958V248.201H189.469V199.465Z" fill="#6D6E71" fill-opacity="0.72"/>
<path opacity="0.4" d="M806.813 50.1055H760.302V98.8413H806.813V50.1055Z" fill="#6D6E71" fill-opacity="0.72"/>
<path opacity="0.4" d="M853.847 99.8242H807.336V148.56H853.847V99.8242Z" fill="#6D6E71" fill-opacity="0.72"/>
<path opacity="0.4" d="M901.36 1.51172H854.849V50.2476H901.36V1.51172Z" fill="#6D6E71" fill-opacity="0.72"/>
<path opacity="0.4" d="M901.36 49.9688H854.849V98.7046H901.36V49.9688Z" fill="#6D6E71" fill-opacity="0.72"/>
<path opacity="0.4" d="M616.759 546.023H570.249V594.759H616.759V546.023Z" fill="#6D6E71" fill-opacity="0.72"/>
<path opacity="0.4" d="M664.049 396.637H617.538V445.373H664.049V396.637Z" fill="#6D6E71" fill-opacity="0.72"/>
<path opacity="0.4" d="M711.771 546.023H665.26V594.759H711.771V546.023Z" fill="#6D6E71" fill-opacity="0.72"/>
<path opacity="0.4" d="M47.1842 98.7031H0.67334V147.439H47.1842V98.7031Z" fill="#6D6E71" fill-opacity="0.72"/>
<path opacity="0.4" d="M284.481 1.51172H237.97V50.2476H284.481V1.51172Z" fill="#6D6E71" fill-opacity="0.72"/>
</g>
<g opacity="0.85" filter="url(#filter1_f_156_857)">
<ellipse cx="160.434" cy="231.357" rx="160.434" ry="231.357" transform="matrix(0.882045 0.471165 0.198969 -0.980006 500.673 825.465)" fill="#50D8E7"/>
<ellipse cx="149.049" cy="241.575" rx="149.049" ry="241.575" transform="matrix(-0.864191 -0.503164 -0.285296 0.958439 418.454 530.629)" fill="#50D8E7"/>
<ellipse cx="149.049" cy="241.575" rx="149.049" ry="241.575" transform="matrix(-0.864191 -0.503164 -0.285296 0.958439 634.126 550.992)" fill="#50D8E7"/>
<ellipse cx="196.353" cy="290.692" rx="196.353" ry="290.692" transform="matrix(-0.669271 -0.743019 -0.520353 0.853951 1234.35 503.789)" fill="#968CFF" fill-opacity="0.78"/>
<ellipse cx="196.353" cy="290.692" rx="196.353" ry="290.692" transform="matrix(-0.970314 -0.241849 0.0460181 0.998941 152.23 368.031)" fill="#968CFF" fill-opacity="0.78"/>
</g>
<path d="M472.429 173L646 253.584L472.429 333.938L298 253.465L472.429 173Z" fill="url(#paint0_linear_156_857)"/>
<path d="M602.85 278.988L646 297.866L472 379.221L298 299.449L341.245 278.988L472 339.737L602.85 278.988Z" fill="url(#paint1_linear_156_857)"/>
<path d="M603.975 323.973L646 343.227L472 424L298 343.424L340.841 323.973L472 384.909L603.975 323.973Z" fill="url(#paint2_linear_156_857)"/>
</g>
</g>
<defs>
<clipPath id="bgblur_1_156_857_clip_path" transform="translate(4 4)"><rect width="943" height="598" rx="25"/>
</clipPath><filter id="filter1_f_156_857" x="-390.317" y="142.241" width="1716.77" height="983.136" filterUnits="userSpaceOnUse" color-interpolation-filters="sRGB">
<feFlood flood-opacity="0" result="BackgroundImageFix"/>
<feBlend mode="normal" in="SourceGraphic" in2="BackgroundImageFix" result="shape"/>
<feGaussianBlur stdDeviation="87.2" result="effect1_foregroundBlur_156_857"/>
</filter>
<linearGradient id="paint0_linear_156_857" x1="475" y1="169.153" x2="476.233" y2="329.463" gradientUnits="userSpaceOnUse">
<stop stop-color="#968CFF"/>
<stop offset="0.979656" stop-color="#50D8E7"/>
</linearGradient>
<linearGradient id="paint1_linear_156_857" x1="475" y1="276.592" x2="475.478" y2="376.437" gradientUnits="userSpaceOnUse">
<stop stop-color="#968CFF"/>
<stop offset="0.979656" stop-color="#50D8E7"/>
</linearGradient>
<linearGradient id="paint2_linear_156_857" x1="475" y1="321.582" x2="475.476" y2="421.222" gradientUnits="userSpaceOnUse">
<stop stop-color="#968CFF"/>
<stop offset="0.979656" stop-color="#50D8E7"/>
</linearGradient>
<clipPath id="clip0_156_857">
<rect width="943" height="598" rx="25" fill="white"/>
</clipPath>
<clipPath id="clip2_156_857">
<rect width="997" height="598" fill="white"/>
</clipPath>
</defs>
</svg>
